# xmcd
#
# Track frame offsets:
#	150
#	18483
#	36144
#	57839
#	78576
#	98386
#	122183
#	140445
#	154857
#	171769
#	198479
#	211016
#	230462
#	253395
#	278183
#	302738
#
# Disc length: 4292 seconds
#
# Revision: 1
# Processed by: cddbd v1.5.1PL2 Copyright (c) Steve Scherf et al.
# Submitted via: audiograbber 1.83.01
#
DISCID=da10c210
DTITLE=Dina Carroll - The Collection
DYEAR=2004
DGENRE=Ballad
TTITLE0=It's Too Late 
TTITLE1=Ain't No Man
TTITLE2=So Close
TTITLE3=Express
TTITLE4=Don't Be A Stranger
TTITLE5=Only Human
TTITLE6=One, Two, Three
TTITLE7=You'll Lose A Good Thing
TTITLE8=Heaven Sent
TTITLE9=You'll Never Know
TTITLE10=Son Of A Preacher Man
TTITLE11=Straight To My Soul
TTITLE12=Run To You
TTITLE13=I Don't Want To Talk About It
TTITLE14=Give Me The Right
TTITLE15=Love Will Always Bring You Back To Me
EXTD=
EXTT0=
EXTT1=
EXTT2=
EXTT3=
EXTT4=
EXTT5=
EXTT6=
EXTT7=
EXTT8=
EXTT9=
EXTT10=
EXTT11=
EXTT12=
EXTT13=
EXTT14=
EXTT15=
PLAYORDER=
